<?xml version="1.0" encoding="UTF-8"?>
<svg xmlns="http://www.w3.org/2000/svg" width="760" height="700" viewBox="0 0 760 700" role="img" aria-labelledby="title desc">
<title>HELIX vector logo</title>
<desc>Editable vector reconstruction of the HELIX logo: DNA helix symbol and geometric HELIX wordmark.</desc>
<defs>
  <linearGradient id="helixGradient" x1="20%" y1="10%" x2="85%" y2="90%">
    <stop offset="0%" stop-color="#2563EB"/>
    <stop offset="52%" stop-color="#4F6BFF"/>
    <stop offset="100%" stop-color="#A855F7"/>
  </linearGradient>
</defs>

<g id="simbolo" transform="translate(240 35) scale(0.48)" fill="none" stroke="url(#helixGradient)" stroke-width="76" stroke-linecap="butt" stroke-linejoin="round">
  <path id="ribbon-left-to-right" d="M 315 120 C 322 230 407 291 512 346 C 638 412 715 520 728 684"/>
  <path id="ribbon-right-to-left" d="M 709 120 C 702 230 617 291 512 346 C 386 412 309 520 296 684"/>
</g><g id="tipografia-helix" transform="translate(135 500) scale(0.72)" fill="#111318" stroke="none">
  <rect id="H-left" x="0" y="0" width="18" height="96" rx="0"/><rect id="H-right" x="70" y="0" width="18" height="96" rx="0"/><rect id="H-mid" x="0" y="39" width="88" height="18" rx="0"/><rect id="E-top" x="135" y="0" width="92" height="18" rx="0"/><rect id="E-mid" x="135" y="39" width="78" height="18" rx="0"/><rect id="E-bot" x="135" y="78" width="92" height="18" rx="0"/><rect id="L-vert" x="275" y="0" width="18" height="96" rx="0"/><rect id="L-base" x="275" y="78" width="88" height="18" rx="0"/><rect id="I" x="410" y="0" width="18" height="96" rx="0"/><path id="X-left" d="M 540 0 L 658 96" stroke="#111318" stroke-width="22" stroke-linecap="butt"/><path id="X-right" d="M 658 0 L 540 96" stroke="#111318" stroke-width="22" stroke-linecap="butt"/>
</g>
</svg>